<svg xmlns="http://www.w3.org/2000/svg" version="1.1" xmlns:xlink="http://www.w3.org/1999/xlink" xmlns:svgjs="http://svgjs.dev/svgjs" width="1500" height="1500" viewBox="0 0 1500 1500"><g transform="matrix(1,0,0,1,0,0)"><svg viewBox="0 0 280 280" data-background-color="#ffffff" preserveAspectRatio="xMidYMid meet" height="1500" width="1500" xmlns="http://www.w3.org/2000/svg" xmlns:xlink="http://www.w3.org/1999/xlink"><g id="tight-bounds" transform="matrix(1,0,0,1,0,0)"><svg viewBox="0 0 280 280" height="280" width="280"><g><svg viewBox="0 0 280 280" height="280" width="280"><g><svg viewBox="0 0 280 280" height="280" width="280"><g id="textblocktransform"><svg viewBox="0 0 280 280" height="280" width="280" id="textblock"><g><svg viewBox="0 0 280 280" height="280" width="280"><g transform="matrix(1,0,0,1,57.50420886156945,57.50420886156945)"><svg viewBox="0 0 164.9915822768611 164.9915822768611" height="164.9915822768611" width="164.9915822768611"><g><circle r="82" cx="82.49579113843055" cy="82.49579113843055" fill="#471aa0" data-fill-palette-color="accent"></circle><svg xmlns="http://www.w3.org/2000/svg" xmlns:xlink="http://www.w3.org/1999/xlink" version="1.1" x="24.74873734152917" y="24.748737341529164" viewBox="5 10.232 90 79.536" enable-background="new 0 0 100 100" xml:space="preserve" height="115.49410759380275" width="115.49410759380275" class="icon-xg-0" data-fill-palette-color="quaternary" id="xg-0"><path fill-rule="evenodd" clip-rule="evenodd" d="M50 10.232c5.201 0 9.418 4.218 9.418 9.418 0 5.202-4.217 9.418-9.418 9.418-5.2 0-9.418-4.217-9.418-9.418C40.582 14.45 44.8 10.232 50 10.232" fill="#ffffff" data-fill-palette-color="quaternary"></path><path fill-rule="evenodd" clip-rule="evenodd" d="M38.488 42.675L38.488 42.675c0-6.357 5.156-11.513 11.512-11.513s11.511 5.153 11.513 11.509v0.004 5.232H38.488V42.675z" fill="#ffffff" data-fill-palette-color="quaternary"></path><polygon fill-rule="evenodd" clip-rule="evenodd" points="95,52.093 95,54.187 95,56.279 92.907,56.279 88.722,56.279   88.722,79.928 88.722,83.488 88.722,85.581 86.629,85.581 84.535,85.581 84.535,87.675 84.535,89.768 82.442,89.768 80.35,89.768   80.35,87.675 80.35,85.581 19.651,85.581 19.651,87.675 19.651,89.768 17.558,89.768 15.465,89.768 15.465,87.675 15.465,85.581   13.372,85.581 11.279,85.581 11.279,83.488 11.279,79.928 11.279,56.279 7.093,56.279 5,56.279 5,54.187 5,52.093 5,50 7.093,50   92.907,50 95,50 " fill="#ffffff" data-fill-palette-color="quaternary"></polygon></svg></g></svg></g><g><path d="M35.661 105.98l-23.728-8.329-2.732 7.781-2.484-0.872 6.7-19.087 2.484 0.872-2.767 7.884 23.728 8.329z" fill="#471aa0" data-fill-palette-color="primary"></path><path d="M26.627 66.115v0c0.544 0.33 0.894 0.805 1.052 1.428 0.161 0.616 0.07 1.208-0.274 1.774v0c-0.33 0.544-0.805 0.887-1.425 1.03-0.621 0.143-1.203 0.049-1.747-0.281v0c-0.544-0.33-0.899-0.804-1.066-1.424-0.161-0.616-0.077-1.197 0.253-1.74v0c0.33-0.544 0.808-0.893 1.436-1.047 0.637-0.156 1.227-0.07 1.771 0.26zM29.839 73.104l1.875-3.094 16.221 9.83-1.637 2.702-14.293-8.661z" fill="#471aa0" data-fill-palette-color="primary"></path><path d="M48.639 48.541v0c0.662-0.705 1.445-1.305 2.348-1.802 0.903-0.497 1.918-0.861 3.045-1.092v0l0.437 2.77c-0.915 0.113-1.705 0.329-2.37 0.649-0.665 0.32-1.215 0.712-1.65 1.176v0c-0.522 0.555-0.877 1.189-1.066 1.903-0.184 0.718-0.21 1.48-0.077 2.287 0.133 0.807 0.441 1.619 0.926 2.438 0.489 0.824 1.142 1.619 1.957 2.386v0c1.742 1.638 3.446 2.499 5.113 2.583 1.666 0.084 3.066-0.477 4.2-1.683v0c0.504-0.536 0.911-1.139 1.224-1.809 0.317-0.666 0.577-1.426 0.78-2.281v0l2.184 0.635c-0.235 1.179-0.559 2.22-0.972 3.123-0.413 0.903-1.02 1.782-1.823 2.636v0c-1.116 1.187-2.407 1.956-3.872 2.306-1.465 0.35-3.002 0.269-4.611-0.244-1.609-0.522-3.165-1.488-4.666-2.899v0c-1.443-1.356-2.423-2.828-2.941-4.415-0.518-1.587-0.61-3.142-0.278-4.666 0.328-1.519 1.032-2.853 2.112-4.001z" fill="#471aa0" data-fill-palette-color="primary"></path><path d="M61 25.346l3.061-2.018 9.872 14.972 1.618-10.433 2.837-1.87-1.688 10.67 12.992 4.596-3.152 2.078-12.142-4.335 5.672 8.601-2.646 1.745-14.767-22.396z" fill="#471aa0" data-fill-palette-color="primary"></path><path d="M100.337 15.882v0c1.429-0.528 2.742-0.682 3.94-0.461 1.191 0.223 2.224 0.763 3.099 1.619 0.874 0.856 1.568 1.977 2.08 3.362v0c0.124 0.335 0.232 0.684 0.323 1.046 0.089 0.355 0.183 0.734 0.282 1.135v0l-11.313 4.183c0.839 2.268 1.986 3.835 3.443 4.701 1.466 0.87 3.031 0.998 4.697 0.383v0c0.696-0.257 1.381-0.631 2.054-1.12 0.671-0.495 1.332-1.107 1.981-1.834v0l1.78 1.375c-0.593 0.975-1.352 1.824-2.279 2.548-0.926 0.724-1.926 1.284-3.001 1.682v0c-1.858 0.687-3.565 0.817-5.12 0.389-1.556-0.427-2.893-1.236-4.012-2.425-1.118-1.19-1.958-2.546-2.521-4.068v0c-0.441-1.193-0.702-2.414-0.782-3.662-0.078-1.242 0.052-2.448 0.389-3.618 0.337-1.17 0.909-2.211 1.715-3.124 0.803-0.904 1.884-1.608 3.245-2.111zM100.882 18.244v0c-0.808 0.299-1.438 0.79-1.891 1.473-0.454 0.683-0.74 1.446-0.86 2.288-0.123 0.851-0.12 1.672 0.011 2.464v0l8.163-3.018c-0.347-1.016-0.795-1.807-1.344-2.374-0.551-0.573-1.172-0.926-1.863-1.059-0.688-0.141-1.426-0.066-2.216 0.226z" fill="#471aa0" data-fill-palette-color="primary"></path><path d="M126.523 4.495l2.315-0.299c-0.067 0.877-0.11 1.784-0.129 2.721-0.018 0.944 0.003 1.86 0.065 2.747v0l4.917-0.635-0.333 2.467-4.276 0.553 1.554 12.031c0.062 0.48 0.173 0.896 0.332 1.25 0.159 0.353 0.399 0.606 0.719 0.758 0.313 0.147 0.732 0.186 1.258 0.118v0c0.407-0.053 0.807-0.141 1.198-0.265 0.397-0.131 0.777-0.271 1.138-0.417v0l0.806 2.05c-0.608 0.259-1.185 0.494-1.733 0.704-0.554 0.212-1.195 0.365-1.924 0.459v0c-1.616 0.209-2.795-0.073-3.535-0.845-0.742-0.779-1.212-1.937-1.411-3.475v0l-1.546-11.962-2.798 0.361-0.245-1.891c1.002-0.156 1.753-0.594 2.255-1.314 0.495-0.718 0.835-1.551 1.02-2.496 0.185-0.946 0.303-1.819 0.353-2.62z" fill="#471aa0" data-fill-palette-color="primary"></path><path d="M155.515 28.473l2.549-25.018-8.204-0.836 0.267-2.619 20.125 2.05-0.267 2.62-8.313-0.847-2.549 25.018z" fill="#471aa0" data-fill-palette-color="primary"></path><path d="M180.931 13.699l3.409 0.609c0.109 1.204 0.041 2.42-0.204 3.648v0c0.94-0.806 2.042-1.362 3.307-1.667 1.262-0.299 2.489-0.266 3.68 0.099v0l-1.716 2.986c-1.165-0.357-2.25-0.357-3.253 0.001-0.997 0.359-1.954 0.904-2.871 1.634v0l-3.69 12.036-3.031-0.929 4.029-13.138c0.15-0.488 0.283-1.046 0.399-1.675 0.11-0.631 0.169-1.264 0.177-1.9 0.008-0.635-0.071-1.203-0.236-1.704z" fill="#471aa0" data-fill-palette-color="primary"></path><path d="M212.61 26.752v0c1.742 0.996 2.785 2.222 3.127 3.678 0.337 1.452 0.012 3.04-0.974 4.765v0l-4.716 8.245c-0.266 0.466-0.358 0.833-0.275 1.102 0.083 0.269 0.245 0.472 0.486 0.61v0c0.201 0.115 0.428 0.206 0.679 0.274 0.257 0.071 0.508 0.119 0.753 0.144v0l-0.426 2.126c-0.466 0.001-1.017-0.07-1.653-0.213-0.636-0.142-1.241-0.378-1.816-0.707v0c-0.575-0.329-1.003-0.787-1.285-1.376-0.276-0.585-0.225-1.342 0.154-2.27v0c-1.03 0.319-2.099 0.448-3.208 0.386-1.109-0.062-2.138-0.364-3.087-0.907v0c-1.299-0.743-2.16-1.747-2.581-3.01-0.418-1.27-0.243-2.577 0.526-3.923v0c0.72-1.259 1.599-2.088 2.636-2.487 1.035-0.408 2.145-0.521 3.33-0.339 1.189 0.176 2.367 0.511 3.535 1.004 1.168 0.493 2.229 1.012 3.184 1.557v0l1.002-1.75c0.533-0.931 0.792-1.825 0.777-2.681-0.009-0.852-0.554-1.587-1.634-2.205v0c-0.839-0.48-1.741-0.778-2.705-0.894-0.961-0.107-2.01-0.062-3.145 0.135v0l-0.248-2.729c1.326-0.211 2.632-0.185 3.916 0.077 1.282 0.268 2.497 0.73 3.648 1.388zM209.159 38.628l0.607-1.06c-0.598-0.342-1.29-0.7-2.076-1.073-0.777-0.376-1.58-0.66-2.409-0.852-0.826-0.198-1.599-0.193-2.32 0.013-0.717 0.2-1.311 0.711-1.781 1.533v0c-0.414 0.724-0.47 1.402-0.167 2.034 0.3 0.622 0.827 1.149 1.58 1.579v0c0.793 0.454 1.614 0.633 2.462 0.538 0.851-0.101 1.642-0.396 2.373-0.886 0.736-0.487 1.313-1.095 1.731-1.826z" fill="#471aa0" data-fill-palette-color="primary"></path><path d="M239.329 47.001v0c0.706 0.661 1.307 1.443 1.805 2.345 0.498 0.902 0.863 1.917 1.097 3.044v0l-2.769 0.441c-0.114-0.915-0.332-1.704-0.653-2.369-0.321-0.664-0.714-1.214-1.178-1.649v0c-0.556-0.521-1.19-0.875-1.905-1.063-0.718-0.183-1.481-0.208-2.286-0.074-0.806 0.134-1.619 0.444-2.438 0.929-0.823 0.491-1.617 1.144-2.383 1.961v0c-1.635 1.745-2.494 3.45-2.576 5.116-0.082 1.666 0.481 3.066 1.689 4.198v0c0.536 0.503 1.14 0.91 1.811 1.221 0.666 0.316 1.427 0.575 2.282 0.777v0l-0.633 2.186c-1.179-0.234-2.22-0.556-3.124-0.968-0.904-0.411-1.783-1.018-2.638-1.82v0c-1.189-1.114-1.959-2.404-2.311-3.868-0.352-1.465-0.273-3.002 0.237-4.612 0.52-1.61 1.484-3.167 2.893-4.67v0c1.355-1.445 2.825-2.427 4.411-2.947 1.586-0.52 3.141-0.615 4.665-0.284 1.519 0.326 2.854 1.028 4.004 2.106z" fill="#471aa0" data-fill-palette-color="primary"></path><path d="M262.54 59.327l2.023 3.057-14.957 9.896 10.436 1.602 1.875 2.834-10.673-1.672-4.576 12.999-2.083-3.149 4.317-12.148-8.593 5.685-1.749-2.644 22.373-14.802z" fill="#471aa0" data-fill-palette-color="primary"></path><path d="M268.987 91.684l1.627 3.057c-0.88 0.829-1.878 1.527-2.994 2.093v0c1.215 0.241 2.333 0.765 3.354 1.57 1.015 0.808 1.746 1.793 2.195 2.955v0l-3.409 0.495c-0.439-1.137-1.109-1.99-2.009-2.557-0.899-0.562-1.918-0.978-3.059-1.248v0l-11.745 4.533-1.141-2.957 12.82-4.948c0.476-0.184 0.997-0.424 1.564-0.721 0.565-0.303 1.099-0.648 1.603-1.034 0.504-0.386 0.902-0.799 1.194-1.238z" fill="#471aa0" data-fill-palette-color="primary"></path><path d="M52.068 242.522l17.952-19.205-6.3-5.89 1.88-2.01 15.445 14.438-1.879 2.011-6.38-5.964-17.953 19.205z" fill="#471aa0" data-fill-palette-color="primary"></path><path d="M84.536 235.331v0c-0.392 0.534-0.917 0.859-1.577 0.975-0.661 0.107-1.27-0.044-1.826-0.451v0c-0.54-0.395-0.855-0.923-0.947-1.581-0.088-0.664 0.064-1.263 0.455-1.798v0c0.392-0.534 0.917-0.859 1.577-0.975 0.656-0.111 1.254 0.032 1.793 0.427v0c0.534 0.392 0.855 0.923 0.964 1.593 0.099 0.672-0.048 1.275-0.439 1.81zM76.956 238.041l3.061 2.244-11.717 15.987-2.677-1.962 10.332-14.096z" fill="#471aa0" data-fill-palette-color="primary"></path><path d="M91.597 246.367v0c0.884 0.496 1.688 1.141 2.413 1.934 0.733 0.791 1.359 1.727 1.877 2.807v0l-2.693 1.144c-0.355-0.898-0.774-1.646-1.259-2.244-0.488-0.593-1.023-1.053-1.606-1.38v0c-0.693-0.389-1.43-0.586-2.21-0.59-0.771-0.007-1.547 0.158-2.328 0.495-0.787 0.333-1.537 0.851-2.249 1.552-0.713 0.702-1.354 1.561-1.924 2.577v0c-1.225 2.184-1.667 4.13-1.328 5.84 0.331 1.712 1.25 2.991 2.758 3.837v0c0.676 0.379 1.39 0.643 2.142 0.791 0.758 0.152 1.594 0.226 2.507 0.222v0l-0.094 2.362c-1.252 0.065-2.389 0.001-3.412-0.193-1.017-0.191-2.06-0.586-3.129-1.186v0c-1.485-0.833-2.591-1.947-3.319-3.343-0.719-1.398-1.021-2.98-0.904-4.745 0.122-1.762 0.71-3.581 1.763-5.459v0c1.014-1.808 2.26-3.175 3.736-4.101 1.482-0.923 3.034-1.408 4.656-1.456 1.631-0.05 3.165 0.329 4.603 1.136z" fill="#471aa0" data-fill-palette-color="primary"></path><path d="M102.569 240.532l3.573 1.366-6.697 17.512 9.853-4.986 3.322 1.27-10.095 5.064 4.017 13.834-3.684-1.409-3.725-12.956-3.848 10.059-3.09-1.181 10.019-26.198z" fill="#471aa0" data-fill-palette-color="primary"></path><path d="M121.913 257.086v0c1.557 0.354 2.795 0.971 3.716 1.853 0.915 0.874 1.513 1.937 1.792 3.189 0.274 1.244 0.24 2.619-0.101 4.123v0c-0.082 0.362-0.186 0.729-0.312 1.101-0.124 0.366-0.259 0.75-0.404 1.152v0l-12.295-2.794c-0.561 2.467-0.448 4.497 0.339 6.088 0.778 1.597 2.075 2.601 3.89 3.014v0c0.756 0.172 1.567 0.234 2.433 0.186 0.873-0.046 1.802-0.202 2.786-0.467v0l0.771 2.213c-1.077 0.523-2.228 0.835-3.453 0.937-1.219 0.103-2.413 0.022-3.582-0.244v0c-2.022-0.459-3.592-1.319-4.713-2.578-1.118-1.266-1.827-2.738-2.124-4.416-0.298-1.678-0.258-3.346 0.118-5.007v0c0.294-1.292 0.76-2.507 1.399-3.645 0.639-1.139 1.443-2.121 2.412-2.947 0.964-0.834 2.058-1.417 3.282-1.751 1.219-0.341 2.568-0.344 4.046-0.007zM121.046 259.467v0c-0.885-0.201-1.72-0.129-2.504 0.215-0.783 0.338-1.471 0.841-2.065 1.508-0.588 0.675-1.051 1.395-1.387 2.16v0l8.875 2.017c0.272-1.079 0.328-2.028 0.167-2.845-0.156-0.81-0.494-1.474-1.014-1.994-0.528-0.514-1.219-0.868-2.072-1.061z" fill="#471aa0" data-fill-palette-color="primary"></path><path d="M135.1 253.876l2.425 0.208c-0.262 0.888-0.507 1.808-0.735 2.759-0.228 0.958-0.409 1.9-0.541 2.826v0l5.167 0.442-0.896 2.437-4.485-0.384-1.083 12.641c-0.044 0.508-0.022 0.959 0.064 1.352 0.086 0.393 0.272 0.701 0.559 0.925 0.287 0.224 0.707 0.36 1.262 0.408v0c0.429 0.037 0.858 0.034 1.287-0.01 0.429-0.043 0.846-0.1 1.251-0.172v0l0.374 2.276c-0.682 0.128-1.327 0.239-1.934 0.333-0.606 0.094-1.296 0.108-2.067 0.042v0c-1.696-0.145-2.836-0.695-3.419-1.649-0.589-0.961-0.814-2.25-0.676-3.867v0l1.076-12.563-2.94-0.251 0.169-1.98c1.065 0.065 1.93-0.217 2.595-0.845 0.671-0.621 1.207-1.396 1.606-2.326 0.398-0.923 0.712-1.791 0.941-2.602z" fill="#471aa0" data-fill-palette-color="primary"></path><path d="M151.496 279.317l-1.505-26.246-8.61 0.493-0.158-2.747 21.108-1.211 0.158 2.748-8.719 0.5 1.505 26.247z" fill="#471aa0" data-fill-palette-color="primary"></path><path d="M160.125 259.092l3.465-1.028c0.662 1.079 1.165 2.251 1.51 3.516v0c0.507-1.192 1.283-2.224 2.327-3.095 1.036-0.877 2.198-1.422 3.486-1.635v0l-0.209 3.6c-1.261 0.209-2.279 0.713-3.053 1.513-0.767 0.799-1.411 1.755-1.931 2.868v0l2.153 12.988-3.264 0.541-2.348-14.164c-0.088-0.529-0.225-1.114-0.412-1.754-0.187-0.64-0.424-1.262-0.712-1.866-0.287-0.597-0.624-1.092-1.012-1.484z" fill="#471aa0" data-fill-palette-color="primary"></path><path d="M179.511 253.902v0c2.007-0.618 3.688-0.536 5.045 0.246 1.35 0.783 2.33 2.166 2.94 4.147v0l2.924 9.495c0.164 0.532 0.376 0.861 0.637 0.989 0.261 0.128 0.534 0.147 0.819 0.06v0c0.228-0.07 0.459-0.176 0.692-0.317 0.234-0.141 0.449-0.298 0.646-0.469v0l1.318 1.85c-0.335 0.353-0.783 0.719-1.345 1.1-0.568 0.383-1.182 0.676-1.84 0.879v0c-0.658 0.203-1.313 0.203-1.964 0.002-0.645-0.203-1.184-0.783-1.617-1.738v0c-0.491 1.017-1.157 1.926-1.998 2.726-0.842 0.8-1.807 1.367-2.897 1.703v0c-1.5 0.462-2.884 0.403-4.15-0.178-1.262-0.589-2.132-1.658-2.61-3.209v0c-0.446-1.45-0.454-2.712-0.023-3.788 0.429-1.082 1.138-2.01 2.126-2.785 0.988-0.775 2.088-1.433 3.302-1.973 1.207-0.538 2.358-0.975 3.452-1.313v0l-0.622-2.023c-0.329-1.07-0.822-1.906-1.479-2.507-0.665-0.606-1.618-0.718-2.859-0.336v0c-0.969 0.298-1.837 0.777-2.604 1.436-0.776 0.655-1.494 1.486-2.154 2.492v0l-2.259-1.768c0.787-1.157 1.739-2.129 2.855-2.916 1.12-0.795 2.342-1.397 3.665-1.805zM186.106 265.023l-0.375-1.216c-0.684 0.211-1.449 0.481-2.297 0.812-0.841 0.328-1.633 0.739-2.376 1.23-0.736 0.49-1.285 1.082-1.647 1.776-0.353 0.698-0.386 1.515-0.097 2.452v0c0.259 0.842 0.734 1.371 1.425 1.588 0.697 0.215 1.476 0.19 2.336-0.075v0c0.918-0.283 1.641-0.782 2.169-1.499 0.528-0.717 0.869-1.532 1.024-2.447 0.151-0.906 0.097-1.78-0.162-2.621z" fill="#471aa0" data-fill-palette-color="primary"></path><path d="M197.086 246.795v0c0.915-0.437 1.905-0.722 2.971-0.857 1.069-0.143 2.195-0.115 3.376 0.085v0l-0.617 2.859c-0.938-0.228-1.791-0.316-2.56-0.264-0.765 0.057-1.45 0.23-2.054 0.517v0c-0.717 0.342-1.303 0.831-1.755 1.466-0.45 0.626-0.763 1.355-0.938 2.187-0.181 0.835-0.191 1.746-0.028 2.732 0.163 0.987 0.495 2.006 0.997 3.059v0c1.078 2.26 2.414 3.743 4.007 4.451 1.59 0.717 3.165 0.703 4.725-0.043v0c0.699-0.334 1.327-0.765 1.881-1.294 0.561-0.532 1.103-1.172 1.627-1.921v0l1.875 1.439c-0.668 1.06-1.377 1.952-2.124 2.676-0.742 0.721-1.666 1.346-2.772 1.874v0c-1.536 0.733-3.085 0.995-4.646 0.785-1.557-0.218-3.024-0.884-4.398-1.996-1.369-1.115-2.517-2.645-3.445-4.587v0c-0.893-1.871-1.292-3.677-1.198-5.417 0.1-1.743 0.598-3.291 1.494-4.644 0.899-1.361 2.093-2.397 3.581-3.107z" fill="#471aa0" data-fill-palette-color="primary"></path><path d="M198.647 234.464l3.177-2.131 10.445 15.569 1.608-10.925 2.954-1.982-1.684 11.168 13.618 4.695-3.275 2.197-12.734-4.427 6.001 8.944-2.748 1.843-15.626-23.292z" fill="#471aa0" data-fill-palette-color="primary"></path><path d="M218.05 233.833l2.403-2.7c1.131 0.568 2.177 1.298 3.136 2.193v0c-0.197-1.28-0.082-2.566 0.347-3.857 0.419-1.291 1.119-2.367 2.1-3.227v0l1.72 3.17c-0.962 0.842-1.56 1.807-1.797 2.895-0.231 1.083-0.274 2.235-0.13 3.455v0l8.676 9.902-2.489 2.181-9.461-10.799c-0.354-0.404-0.778-0.828-1.275-1.274-0.496-0.446-1.026-0.849-1.588-1.211-0.559-0.356-1.106-0.599-1.642-0.728z" fill="#471aa0" data-fill-palette-color="primary"></path><path d="M16.232 144.029c0-1.841 1.492-3.333 3.333-3.332 1.841 0 3.333 1.492 3.333 3.332 0 1.841-1.492 3.333-3.333 3.333-1.841 0-3.333-1.492-3.333-3.333z" fill="#471aa0" data-fill-palette-color="primary"></path><path d="M266.617 144.029c0-1.841 1.492-3.333 3.333-3.332 1.841 0 3.333 1.492 3.333 3.332 0 1.841-1.492 3.333-3.333 3.333-1.841 0-3.333-1.492-3.333-3.333z" fill="#471aa0" data-fill-palette-color="primary"></path></g></svg></g></svg></g></svg></g><g></g></svg></g><defs></defs></svg><rect width="280" height="280" fill="none" stroke="none" visibility="hidden"></rect></g></svg></g></svg>